<?xml version="1.0" encoding="UTF-8"?>
<!DOCTYPE svg PUBLIC "-//W3C//DTD SVG 1.1//EN" "http://www.w3.org/Graphics/SVG/1.1/DTD/svg11.dtd">
<svg version="1.2" width="297mm" height="210mm" viewBox="0 0 29700 21000" preserveAspectRatio="xMidYMid" fill-rule="evenodd" clip-path="url(#presentation_clip_path)" stroke-width="28.222" stroke-linejoin="round" xmlns="http://www.w3.org/2000/svg" xmlns:ooo="http://xml.openoffice.org/svg/export" xmlns:xlink="http://www.w3.org/1999/xlink" xml:space="preserve">
 <defs class="ClipPathGroup">
  <clipPath id="presentation_clip_path" clipPathUnits="userSpaceOnUse">
   <rect x="0" y="0" width="29700" height="21000"/>
  </clipPath>
 </defs>
 <defs class="TextShapeIndex">
  <g ooo:slide="id1" ooo:id-list="id3 id4 id5 id6 id7 id8 id9 id10 id11 id12 id13 id14 id15 id16 id17 id18"/>
 </defs>
 <defs class="EmbeddedBulletChars">
  <g id="bullet-char-template(57356)" transform="scale(0.00048828125,-0.00048828125)">
   <path d="M 580,1141 L 1163,571 580,0 -4,571 580,1141 Z"/>
  </g>
  <g id="bullet-char-template(57354)" transform="scale(0.00048828125,-0.00048828125)">
   <path d="M 8,1128 L 1137,1128 1137,0 8,0 8,1128 Z"/>
  </g>
  <g id="bullet-char-template(10146)" transform="scale(0.00048828125,-0.00048828125)">
   <path d="M 174,0 L 602,739 174,1481 1456,739 174,0 Z M 1358,739 L 309,1346 659,739 1358,739 Z"/>
  </g>
  <g id="bullet-char-template(10132)" transform="scale(0.00048828125,-0.00048828125)">
   <path d="M 2015,739 L 1276,0 717,0 1260,543 174,543 174,936 1260,936 717,1481 1274,1481 2015,739 Z"/>
  </g>
  <g id="bullet-char-template(10007)" transform="scale(0.00048828125,-0.00048828125)">
   <path d="M 0,-2 C -7,14 -16,27 -25,37 L 356,567 C 262,823 215,952 215,954 215,979 228,992 255,992 264,992 276,990 289,987 310,991 331,999 354,1012 L 381,999 492,748 772,1049 836,1024 860,1049 C 881,1039 901,1025 922,1006 886,937 835,863 770,784 769,783 710,716 594,584 L 774,223 C 774,196 753,168 711,139 L 727,119 C 717,90 699,76 672,76 641,76 570,178 457,381 L 164,-76 C 142,-110 111,-127 72,-127 30,-127 9,-110 8,-76 1,-67 -2,-52 -2,-32 -2,-23 -1,-13 0,-2 Z"/>
  </g>
  <g id="bullet-char-template(10004)" transform="scale(0.00048828125,-0.00048828125)">
   <path d="M 285,-33 C 182,-33 111,30 74,156 52,228 41,333 41,471 41,549 55,616 82,672 116,743 169,778 240,778 293,778 328,747 346,684 L 369,508 C 377,444 397,411 428,410 L 1163,1116 C 1174,1127 1196,1133 1229,1133 1271,1133 1292,1118 1292,1087 L 1292,965 C 1292,929 1282,901 1262,881 L 442,47 C 390,-6 338,-33 285,-33 Z"/>
  </g>
  <g id="bullet-char-template(9679)" transform="scale(0.00048828125,-0.00048828125)">
   <path d="M 813,0 C 632,0 489,54 383,161 276,268 223,411 223,592 223,773 276,916 383,1023 489,1130 632,1184 813,1184 992,1184 1136,1130 1245,1023 1353,916 1407,772 1407,592 1407,412 1353,268 1245,161 1136,54 992,0 813,0 Z"/>
  </g>
  <g id="bullet-char-template(8226)" transform="scale(0.00048828125,-0.00048828125)">
   <path d="M 346,457 C 273,457 209,483 155,535 101,586 74,649 74,723 74,796 101,859 155,911 209,963 273,989 346,989 419,989 480,963 531,910 582,859 608,796 608,723 608,648 583,586 532,535 482,483 420,457 346,457 Z"/>
  </g>
  <g id="bullet-char-template(8211)" transform="scale(0.00048828125,-0.00048828125)">
   <path d="M -4,459 L 1135,459 1135,606 -4,606 -4,459 Z"/>
  </g>
 </defs>
 <defs class="TextEmbeddedBitmaps"/>
 <g>
  <g id="id2" class="Master_Slide">
   <g id="bg-id2" class="Background"/>
   <g id="bo-id2" class="BackgroundObjects"/>
  </g>
 </g>
 <g class="SlideGroup">
  <g>
   <g id="id1" class="Slide" clip-path="url(#presentation_clip_path)">
    <g class="Page">
     <g class="com.sun.star.drawing.CustomShape">
      <g id="id3">
       <path fill="rgb(107,0,148)" stroke="none" d="M 9200,6316 C 10107,6316 10800,7009 10800,7916 10800,8823 10107,9516 9200,9516 8293,9516 7600,8823 7600,7916 7600,7009 8293,6316 9200,6316 Z M 7600,6316 L 7600,6316 Z M 10801,9517 L 10801,9517 Z"/>
       <text class="TextShape"><tspan class="TextParagraph" font-family="Arial, sans-serif" font-size="635px" font-weight="400"><tspan class="TextPosition" x="8635" y="8137"><tspan fill="rgb(255,255,255)" stroke="none">App</tspan></tspan></tspan></text>
      </g>
     </g>
     <g class="com.sun.star.drawing.CustomShape">
      <g id="id4">
       <path fill="rgb(107,0,148)" stroke="none" d="M 9200,11716 C 10107,11716 10800,12409 10800,13316 10800,14223 10107,14916 9200,14916 8293,14916 7600,14223 7600,13316 7600,12409 8293,11716 9200,11716 Z M 7600,11716 L 7600,11716 Z M 10801,14917 L 10801,14917 Z"/>
       <text class="TextShape"><tspan class="TextParagraph" font-family="Arial, sans-serif" font-size="635px" font-weight="400"><tspan class="TextPosition" x="8553" y="13537"><tspan fill="rgb(255,255,255)" stroke="none">Web</tspan></tspan></tspan></text>
      </g>
     </g>
     <g class="com.sun.star.drawing.CustomShape">
      <g id="id5">
       <path fill="rgb(255,51,51)" stroke="none" d="M 13600,7316 C 14507,7316 15200,8009 15200,8916 15200,9823 14507,10516 13600,10516 12693,10516 12000,9823 12000,8916 12000,8009 12693,7316 13600,7316 Z M 12000,7316 L 12000,7316 Z M 15201,10517 L 15201,10517 Z"/>
       <text class="TextShape"><tspan class="TextParagraph" font-family="Arial, sans-serif" font-size="635px" font-weight="400"><tspan class="TextPosition" x="12806" y="9137"><tspan fill="rgb(255,255,255)" stroke="none">Ibrida</tspan></tspan></tspan></text>
      </g>
     </g>
     <g class="com.sun.star.drawing.CustomShape">
      <g id="id6">
       <path fill="rgb(255,51,51)" stroke="none" d="M 13600,3816 C 14507,3816 15200,4509 15200,5416 15200,6323 14507,7016 13600,7016 12693,7016 12000,6323 12000,5416 12000,4509 12693,3816 13600,3816 Z M 12000,3816 L 12000,3816 Z M 15201,7017 L 15201,7017 Z"/>
       <text class="TextShape"><tspan class="TextParagraph" font-family="Arial, sans-serif" font-size="635px" font-weight="400"><tspan class="TextPosition" x="12700" y="5637"><tspan fill="rgb(255,255,255)" stroke="none">Nativa</tspan></tspan></tspan></text>
      </g>
     </g>
     <g class="com.sun.star.drawing.CustomShape">
      <g id="id7">
       <path fill="rgb(255,51,51)" stroke="none" d="M 13600,10716 C 14507,10716 15200,11409 15200,12316 15200,13223 14507,13916 13600,13916 12693,13916 12000,13223 12000,12316 12000,11409 12693,10716 13600,10716 Z M 12000,10716 L 12000,10716 Z M 15201,13917 L 15201,13917 Z"/>
       <text class="TextShape"><tspan class="TextParagraph" font-family="Arial, sans-serif" font-size="635px" font-weight="400"><tspan class="TextPosition" x="12664" y="12181"><tspan fill="rgb(255,255,255)" stroke="none">Mobile</tspan></tspan><tspan class="TextPosition" x="13054" y="12892"><tspan fill="rgb(255,255,255)" stroke="none">Site</tspan></tspan></tspan></text>
      </g>
     </g>
     <g class="com.sun.star.drawing.CustomShape">
      <g id="id8">
       <path fill="rgb(255,51,51)" stroke="none" d="M 13600,14216 C 14507,14216 15200,14909 15200,15816 15200,16723 14507,17416 13600,17416 12693,17416 12000,16723 12000,15816 12000,14909 12693,14216 13600,14216 Z M 12000,14216 L 12000,14216 Z M 15201,17417 L 15201,17417 Z"/>
       <text class="TextShape"><tspan class="TextParagraph" font-family="Arial, sans-serif" font-size="635px" font-weight="400"><tspan class="TextPosition" x="12847" y="16037"><tspan fill="rgb(255,255,255)" stroke="none">RWD</tspan></tspan></tspan></text>
      </g>
     </g>
     <g class="com.sun.star.drawing.ConnectorShape">
      <g id="id9">
       <path fill="none" stroke="rgb(0,0,0)" d="M 10800,13316 C 11701,13316 11102,12316 12000,12316"/>
      </g>
     </g>
     <g class="com.sun.star.drawing.ConnectorShape">
      <g id="id10">
       <path fill="none" stroke="rgb(0,0,0)" d="M 10800,13316 C 11701,13316 11102,15816 12000,15816"/>
      </g>
     </g>
     <g class="com.sun.star.drawing.ConnectorShape">
      <g id="id11">
       <path fill="none" stroke="rgb(0,0,0)" d="M 10800,7916 C 11701,7916 11102,8916 12000,8916"/>
      </g>
     </g>
     <g class="com.sun.star.drawing.ConnectorShape">
      <g id="id12">
       <path fill="none" stroke="rgb(0,0,0)" d="M 10800,7916 C 11701,7916 11102,5416 12000,5416"/>
      </g>
     </g>
     <g class="com.sun.star.drawing.CustomShape">
      <g id="id13">
       <path fill="rgb(0,153,255)" stroke="none" d="M 4700,9016 C 5607,9016 6300,9709 6300,10616 6300,11523 5607,12216 4700,12216 3793,12216 3100,11523 3100,10616 3100,9709 3793,9016 4700,9016 Z M 3100,9016 L 3100,9016 Z M 6301,12217 L 6301,12217 Z"/>
       <text class="TextShape"><tspan class="TextParagraph" font-family="Arial, sans-serif" font-size="635px" font-weight="400"><tspan class="TextPosition" x="3500" y="10837"><tspan fill="rgb(255,255,255)" stroke="none">MOBILE</tspan></tspan></tspan></text>
      </g>
     </g>
     <g class="com.sun.star.drawing.ConnectorShape">
      <g id="id14">
       <path fill="none" stroke="rgb(0,0,0)" d="M 6300,10616 C 7276,10616 6627,13316 7600,13316"/>
      </g>
     </g>
     <g class="com.sun.star.drawing.ConnectorShape">
      <g id="id15">
       <path fill="none" stroke="rgb(0,0,0)" d="M 6300,10616 C 7276,10616 6627,7916 7600,7916"/>
      </g>
     </g>
     <g class="com.sun.star.drawing.CustomShape">
      <g id="id16">
       <path fill="rgb(220,35,0)" stroke="none" d="M 16400,17500 L 16400,4633 17550,3815 18701,4633 18701,17500 17550,16683 16400,17500 Z M 16400,17500 L 16400,17500 Z M 18701,3815 L 18701,3815 Z"/>
       <text class="TextShape"><tspan class="TextParagraph" font-family="Arial, sans-serif" font-size="1129px" font-weight="400"><tspan class="TextPosition" x="17940" y="14705" transform="translate(17940,14705) rotate(-90) translate(-17940,-14705)"><tspan fill="rgb(255,255,255)" stroke="none">frammentazione</tspan></tspan></tspan></text>
      </g>
     </g>
     <g class="com.sun.star.drawing.CustomShape">
      <g id="id17">
       <path fill="rgb(51,51,51)" stroke="none" d="M 19000,17500 L 19000,4633 20150,3815 21301,4633 21301,17500 20150,16683 19000,17500 Z M 19000,17500 L 19000,17500 Z M 21301,3815 L 21301,3815 Z"/>
       <text class="TextShape"><tspan class="TextParagraph" font-family="Arial, sans-serif" font-size="1129px" font-weight="400"><tspan class="TextPosition" x="20540" y="12938" transform="translate(20540,12938) rotate(-90) translate(-20540,-12938)"><tspan fill="rgb(255,255,255)" stroke="none">difficoltà*</tspan></tspan></tspan></text>
      </g>
     </g>
     <g class="com.sun.star.drawing.CustomShape">
      <g id="id18">
       <path fill="rgb(51,204,102)" stroke="none" d="M 21600,17500 L 21600,4633 22750,3815 23901,4633 23901,17500 22750,16683 21600,17500 Z M 21600,17500 L 21600,17500 Z M 23901,3815 L 23901,3815 Z"/>
       <text class="TextShape"><tspan class="TextParagraph" font-family="Arial, sans-serif" font-size="1129px" font-weight="400"><tspan class="TextPosition" x="23140" y="13514" transform="translate(23140,13514) rotate(-90) translate(-23140,-13514)"><tspan fill="rgb(255,255,255)" stroke="none">potenzialità</tspan></tspan></tspan></text>
      </g>
     </g>
    </g>
   </g>
  </g>
 </g>
</svg>