<?xml version="1.0" encoding="UTF-8"?>
<!DOCTYPE svg PUBLIC "-//W3C//DTD SVG 1.1//EN" "http://www.w3.org/Graphics/SVG/1.1/DTD/svg11.dtd">
<svg version="1.2" width="297mm" height="210mm" viewBox="0 0 29700 21000" preserveAspectRatio="xMidYMid" fill-rule="evenodd" clip-path="url(#presentation_clip_path)" stroke-width="28.222" stroke-linejoin="round" xmlns="http://www.w3.org/2000/svg" xmlns:ooo="http://xml.openoffice.org/svg/export" xmlns:xlink="http://www.w3.org/1999/xlink" xml:space="preserve">
 <defs class="ClipPathGroup">
  <clipPath id="presentation_clip_path" clipPathUnits="userSpaceOnUse">
   <rect x="0" y="0" width="29700" height="21000"/>
  </clipPath>
 </defs>
 <defs class="TextShapeIndex">
  <g ooo:slide="id1" ooo:id-list="id3 id4 id5 id6 id7 id8 id9 id10 id11 id12 id13 id14 id15 id16 id17 id18 id19 id20 id21 id22 id23 id24 id25"/>
 </defs>
 <defs class="EmbeddedBulletChars">
  <g id="bullet-char-template(57356)" transform="scale(0.00048828125,-0.00048828125)">
   <path d="M 580,1141 L 1163,571 580,0 -4,571 580,1141 Z"/>
  </g>
  <g id="bullet-char-template(57354)" transform="scale(0.00048828125,-0.00048828125)">
   <path d="M 8,1128 L 1137,1128 1137,0 8,0 8,1128 Z"/>
  </g>
  <g id="bullet-char-template(10146)" transform="scale(0.00048828125,-0.00048828125)">
   <path d="M 174,0 L 602,739 174,1481 1456,739 174,0 Z M 1358,739 L 309,1346 659,739 1358,739 Z"/>
  </g>
  <g id="bullet-char-template(10132)" transform="scale(0.00048828125,-0.00048828125)">
   <path d="M 2015,739 L 1276,0 717,0 1260,543 174,543 174,936 1260,936 717,1481 1274,1481 2015,739 Z"/>
  </g>
  <g id="bullet-char-template(10007)" transform="scale(0.00048828125,-0.00048828125)">
   <path d="M 0,-2 C -7,14 -16,27 -25,37 L 356,567 C 262,823 215,952 215,954 215,979 228,992 255,992 264,992 276,990 289,987 310,991 331,999 354,1012 L 381,999 492,748 772,1049 836,1024 860,1049 C 881,1039 901,1025 922,1006 886,937 835,863 770,784 769,783 710,716 594,584 L 774,223 C 774,196 753,168 711,139 L 727,119 C 717,90 699,76 672,76 641,76 570,178 457,381 L 164,-76 C 142,-110 111,-127 72,-127 30,-127 9,-110 8,-76 1,-67 -2,-52 -2,-32 -2,-23 -1,-13 0,-2 Z"/>
  </g>
  <g id="bullet-char-template(10004)" transform="scale(0.00048828125,-0.00048828125)">
   <path d="M 285,-33 C 182,-33 111,30 74,156 52,228 41,333 41,471 41,549 55,616 82,672 116,743 169,778 240,778 293,778 328,747 346,684 L 369,508 C 377,444 397,411 428,410 L 1163,1116 C 1174,1127 1196,1133 1229,1133 1271,1133 1292,1118 1292,1087 L 1292,965 C 1292,929 1282,901 1262,881 L 442,47 C 390,-6 338,-33 285,-33 Z"/>
  </g>
  <g id="bullet-char-template(9679)" transform="scale(0.00048828125,-0.00048828125)">
   <path d="M 813,0 C 632,0 489,54 383,161 276,268 223,411 223,592 223,773 276,916 383,1023 489,1130 632,1184 813,1184 992,1184 1136,1130 1245,1023 1353,916 1407,772 1407,592 1407,412 1353,268 1245,161 1136,54 992,0 813,0 Z"/>
  </g>
  <g id="bullet-char-template(8226)" transform="scale(0.00048828125,-0.00048828125)">
   <path d="M 346,457 C 273,457 209,483 155,535 101,586 74,649 74,723 74,796 101,859 155,911 209,963 273,989 346,989 419,989 480,963 531,910 582,859 608,796 608,723 608,648 583,586 532,535 482,483 420,457 346,457 Z"/>
  </g>
  <g id="bullet-char-template(8211)" transform="scale(0.00048828125,-0.00048828125)">
   <path d="M -4,459 L 1135,459 1135,606 -4,606 -4,459 Z"/>
  </g>
 </defs>
 <defs class="TextEmbeddedBitmaps"/>
 <g>
  <g id="id2" class="Master_Slide">
   <g id="bg-id2" class="Background"/>
   <g id="bo-id2" class="BackgroundObjects"/>
  </g>
 </g>
 <g class="SlideGroup">
  <g>
   <g id="id1" class="Slide" clip-path="url(#presentation_clip_path)">
    <g class="Page">
     <g class="com.sun.star.drawing.CustomShape">
      <g id="id3">
       <path fill="rgb(107,0,148)" stroke="none" d="M 9300,6300 C 10207,6300 10900,6993 10900,7900 10900,8807 10207,9500 9300,9500 8393,9500 7700,8807 7700,7900 7700,6993 8393,6300 9300,6300 Z M 7700,6300 L 7700,6300 Z M 10901,9501 L 10901,9501 Z"/>
       <text class="TextShape"><tspan class="TextParagraph" font-family="Arial, sans-serif" font-size="635px" font-weight="400"><tspan class="TextPosition" x="8735" y="8121"><tspan fill="rgb(255,255,255)" stroke="none">App</tspan></tspan></tspan></text>
      </g>
     </g>
     <g class="com.sun.star.drawing.CustomShape">
      <g id="id4">
       <path fill="rgb(107,0,148)" stroke="none" d="M 9300,11700 C 10207,11700 10900,12393 10900,13300 10900,14207 10207,14900 9300,14900 8393,14900 7700,14207 7700,13300 7700,12393 8393,11700 9300,11700 Z M 7700,11700 L 7700,11700 Z M 10901,14901 L 10901,14901 Z"/>
       <text class="TextShape"><tspan class="TextParagraph" font-family="Arial, sans-serif" font-size="635px" font-weight="400"><tspan class="TextPosition" x="8653" y="13521"><tspan fill="rgb(255,255,255)" stroke="none">Web</tspan></tspan></tspan></text>
      </g>
     </g>
     <g class="com.sun.star.drawing.CustomShape">
      <g id="id5">
       <path fill="rgb(255,51,51)" stroke="none" d="M 13700,7300 C 14607,7300 15300,7993 15300,8900 15300,9807 14607,10500 13700,10500 12793,10500 12100,9807 12100,8900 12100,7993 12793,7300 13700,7300 Z M 12100,7300 L 12100,7300 Z M 15301,10501 L 15301,10501 Z"/>
       <text class="TextShape"><tspan class="TextParagraph" font-family="Arial, sans-serif" font-size="635px" font-weight="400"><tspan class="TextPosition" x="12906" y="9121"><tspan fill="rgb(255,255,255)" stroke="none">Ibrida</tspan></tspan></tspan></text>
      </g>
     </g>
     <g class="com.sun.star.drawing.CustomShape">
      <g id="id6">
       <path fill="rgb(255,51,51)" stroke="none" d="M 13700,3800 C 14607,3800 15300,4493 15300,5400 15300,6307 14607,7000 13700,7000 12793,7000 12100,6307 12100,5400 12100,4493 12793,3800 13700,3800 Z M 12100,3800 L 12100,3800 Z M 15301,7001 L 15301,7001 Z"/>
       <text class="TextShape"><tspan class="TextParagraph" font-family="Arial, sans-serif" font-size="635px" font-weight="400"><tspan class="TextPosition" x="12800" y="5621"><tspan fill="rgb(255,255,255)" stroke="none">Nativa</tspan></tspan></tspan></text>
      </g>
     </g>
     <g class="com.sun.star.drawing.CustomShape">
      <g id="id7">
       <path fill="rgb(255,51,51)" stroke="none" d="M 13700,10700 C 14607,10700 15300,11393 15300,12300 15300,13207 14607,13900 13700,13900 12793,13900 12100,13207 12100,12300 12100,11393 12793,10700 13700,10700 Z M 12100,10700 L 12100,10700 Z M 15301,13901 L 15301,13901 Z"/>
       <text class="TextShape"><tspan class="TextParagraph" font-family="Arial, sans-serif" font-size="635px" font-weight="400"><tspan class="TextPosition" x="12764" y="12165"><tspan fill="rgb(255,255,255)" stroke="none">Mobile</tspan></tspan><tspan class="TextPosition" x="13154" y="12876"><tspan fill="rgb(255,255,255)" stroke="none">Site</tspan></tspan></tspan></text>
      </g>
     </g>
     <g class="com.sun.star.drawing.CustomShape">
      <g id="id8">
       <path fill="rgb(255,51,51)" stroke="none" d="M 13700,14200 C 14607,14200 15300,14893 15300,15800 15300,16707 14607,17400 13700,17400 12793,17400 12100,16707 12100,15800 12100,14893 12793,14200 13700,14200 Z M 12100,14200 L 12100,14200 Z M 15301,17401 L 15301,17401 Z"/>
       <text class="TextShape"><tspan class="TextParagraph" font-family="Arial, sans-serif" font-size="635px" font-weight="400"><tspan class="TextPosition" x="12947" y="16021"><tspan fill="rgb(255,255,255)" stroke="none">RWD</tspan></tspan></tspan></text>
      </g>
     </g>
     <g class="com.sun.star.drawing.ConnectorShape">
      <g id="id9">
       <path fill="none" stroke="rgb(0,0,0)" d="M 10900,13300 C 11801,13300 11202,12300 12100,12300"/>
      </g>
     </g>
     <g class="com.sun.star.drawing.ConnectorShape">
      <g id="id10">
       <path fill="none" stroke="rgb(0,0,0)" d="M 10900,13300 C 11801,13300 11202,15800 12100,15800"/>
      </g>
     </g>
     <g class="com.sun.star.drawing.ConnectorShape">
      <g id="id11">
       <path fill="none" stroke="rgb(0,0,0)" d="M 10900,7900 C 11801,7900 11202,8900 12100,8900"/>
      </g>
     </g>
     <g class="com.sun.star.drawing.ConnectorShape">
      <g id="id12">
       <path fill="none" stroke="rgb(0,0,0)" d="M 10900,7900 C 11801,7900 11202,5400 12100,5400"/>
      </g>
     </g>
     <g class="com.sun.star.drawing.CustomShape">
      <g id="id13">
       <path fill="rgb(255,102,51)" stroke="none" d="M 18300,14200 C 19207,14200 19900,14893 19900,15800 19900,16707 19207,17400 18300,17400 17393,17400 16700,16707 16700,15800 16700,14893 17393,14200 18300,14200 Z M 16700,14200 L 16700,14200 Z M 19901,17401 L 19901,17401 Z"/>
       <text class="TextShape"><tspan class="TextParagraph" font-family="Arial, sans-serif" font-size="635px" font-weight="400"><tspan class="TextPosition" x="17205" y="15665"><tspan fill="rgb(255,255,255)" stroke="none">Alloy UI</tspan></tspan><tspan class="TextPosition" x="17857" y="16376"><tspan fill="rgb(255,255,255)" stroke="none">2.0</tspan></tspan></tspan></text>
      </g>
     </g>
     <g class="com.sun.star.drawing.CustomShape">
      <g id="id14">
       <path fill="rgb(255,102,51)" stroke="none" d="M 22500,14200 C 23407,14200 24100,14893 24100,15800 24100,16707 23407,17400 22500,17400 21593,17400 20900,16707 20900,15800 20900,14893 21593,14200 22500,14200 Z M 20900,14200 L 20900,14200 Z M 24101,17401 L 24101,17401 Z"/>
       <text class="TextShape"><tspan class="TextParagraph" font-family="Arial, sans-serif" font-size="635px" font-weight="400"><tspan class="TextPosition" x="21141" y="16021"><tspan fill="rgb(255,255,255)" stroke="none">Bootstrap</tspan></tspan></tspan></text>
      </g>
     </g>
     <g class="com.sun.star.drawing.CustomShape">
      <g id="id15">
       <path fill="rgb(255,102,51)" stroke="none" d="M 22500,10700 C 23407,10700 24100,11393 24100,12300 24100,13207 23407,13900 22500,13900 21593,13900 20900,13207 20900,12300 20900,11393 21593,10700 22500,10700 Z M 20900,10700 L 20900,10700 Z M 24101,13901 L 24101,13901 Z"/>
       <text class="TextShape"><tspan class="TextParagraph" font-family="Arial, sans-serif" font-size="635px" font-weight="400"><tspan class="TextPosition" x="21954" y="12165"><tspan fill="rgb(255,255,255)" stroke="none">Site</tspan></tspan><tspan class="TextPosition" x="21213" y="12876"><tspan fill="rgb(255,255,255)" stroke="none">Hirearch.</tspan></tspan></tspan></text>
      </g>
     </g>
     <g class="com.sun.star.drawing.CustomShape">
      <g id="id16">
       <path fill="rgb(255,149,14)" stroke="none" d="M 18300,10700 C 19207,10700 19900,11393 19900,12300 19900,13207 19207,13900 18300,13900 17393,13900 16700,13207 16700,12300 16700,11393 17393,10700 18300,10700 Z M 16700,10700 L 16700,10700 Z M 19901,13901 L 19901,13901 Z"/>
       <text class="TextShape"><tspan class="TextParagraph" font-family="Arial, sans-serif" font-size="635px" font-weight="400"><tspan class="TextPosition" x="17172" y="12521"><tspan fill="rgb(255,255,255)" stroke="none">WURFL</tspan></tspan></tspan></text>
      </g>
     </g>
     <g class="com.sun.star.drawing.ConnectorShape">
      <g id="id17">
       <path fill="none" stroke="rgb(0,0,0)" d="M 15300,15800 L 16700,15800"/>
      </g>
     </g>
     <g class="com.sun.star.drawing.ConnectorShape">
      <g id="id18">
       <path fill="none" stroke="rgb(0,0,0)" d="M 19900,15800 L 20900,15800"/>
      </g>
     </g>
     <g class="com.sun.star.drawing.ConnectorShape">
      <g id="id19">
       <path fill="none" stroke="rgb(0,0,0)" d="M 15300,12300 L 16700,12300"/>
      </g>
     </g>
     <g class="com.sun.star.drawing.ConnectorShape">
      <g id="id20">
       <path fill="none" stroke="rgb(0,0,0)" d="M 19900,12300 L 20900,12300"/>
      </g>
     </g>
     <g class="com.sun.star.drawing.ConnectorShape">
      <g id="id21">
       <path fill="none" stroke="rgb(0,0,0)" d="M 15300,12300 C 16351,12300 15652,15800 16700,15800"/>
      </g>
     </g>
     <g class="com.sun.star.drawing.CustomShape">
      <g id="id22">
       <path fill="rgb(0,153,255)" stroke="none" d="M 4900,9000 C 5807,9000 6500,9693 6500,10600 6500,11507 5807,12200 4900,12200 3993,12200 3300,11507 3300,10600 3300,9693 3993,9000 4900,9000 Z M 3300,9000 L 3300,9000 Z M 6501,12201 L 6501,12201 Z"/>
       <text class="TextShape"><tspan class="TextParagraph" font-family="Arial, sans-serif" font-size="635px" font-weight="400"><tspan class="TextPosition" x="3700" y="10821"><tspan fill="rgb(255,255,255)" stroke="none">MOBILE</tspan></tspan></tspan></text>
      </g>
     </g>
     <g class="com.sun.star.drawing.ConnectorShape">
      <g id="id23">
       <path fill="none" stroke="rgb(0,0,0)" d="M 6500,10600 C 7400,10600 6800,13300 7700,13300"/>
      </g>
     </g>
     <g class="com.sun.star.drawing.ConnectorShape">
      <g id="id24">
       <path fill="none" stroke="rgb(0,0,0)" d="M 6500,10600 C 7400,10600 6800,7900 7700,7900"/>
      </g>
     </g>
     <g class="com.sun.star.drawing.CustomShape">
      <g id="id25">
       <path fill="rgb(204,204,204)" stroke="none" d="M 17996,6142 C 17881,5598 18418,5085 18954,5085 19124,5081 19299,5134 19442,5213 19580,4967 19836,4816 20123,4816 20313,4824 20516,4897 20660,5030 20763,4812 20981,4684 21217,4684 21415,4684 21596,4777 21710,4920 21842,4773 22041,4684 22247,4684 22583,4684 22867,4914 22928,5236 23252,5325 23487,5617 23487,5951 23487,6053 23470,6151 23421,6244 23559,6407 23643,6609 23643,6815 23643,7281 23272,7675 22796,7742 22796,8188 22428,8538 21969,8538 21811,8538 21662,8496 21530,8414 21409,8807 21027,9085 20599,9085 20281,9085 19979,8919 19798,8659 19629,8758 19718,8818 19233,8818 18834,8818 18466,8612 18274,8278 17815,8269 17579,8005 17579,7670 17579,7516 17640,7375 17749,7259 17551,7161 17442,6968 17442,6745 17442,6434 17683,6177 17996,6142 L 17996,6142 Z M 17442,4684 L 17442,4684 Z M 23643,9085 L 23643,9085 Z"/>
       <text class="TextShape"><tspan class="TextParagraph" font-family="Arial, sans-serif" font-size="1411px" font-weight="400"><tspan class="TextPosition" x="19937" y="7276"><tspan fill="rgb(0,0,0)" stroke="none">?</tspan></tspan></tspan></text>
      </g>
     </g>
    </g>
   </g>
  </g>
 </g>
</svg>